<svg width="38" height="38" viewBox="0 0 38 38" fill="none" xmlns="http://www.w3.org/2000/svg">
<rect width="38" height="38" rx="19" fill="#F4E9FF"/>
<path opacity="0.4" d="M24.248 14.668C24.2005 14.6601 24.1451 14.6601 24.0976 14.668C23.0051 14.6284 22.1343 13.7338 22.1343 12.6255C22.1343 11.4934 23.0447 10.583 24.1768 10.583C25.3089 10.583 26.2193 11.5013 26.2193 12.6255C26.2114 13.7338 25.3405 14.6284 24.248 14.668Z" stroke="#901EFF" strokeWidth="1.5" strokeLinecap="round" strokeLinejoin="round"/>
<path opacity="0.4" d="M23.4324 20.4315C24.517 20.6136 25.7124 20.4236 26.5516 19.8615C27.6679 19.1173 27.6679 17.8981 26.5516 17.154C25.7045 16.5919 24.4933 16.4019 23.4087 16.5919" stroke="#901EFF" strokeWidth="1.5" strokeLinecap="round" strokeLinejoin="round"/>
<path opacity="0.4" d="M14.7242 14.668C14.7717 14.6601 14.8271 14.6601 14.8746 14.668C15.9671 14.6284 16.8379 13.7338 16.8379 12.6255C16.8379 11.4934 15.9275 10.583 14.7954 10.583C13.6633 10.583 12.7529 11.5013 12.7529 12.6255C12.7608 13.7338 13.6317 14.6284 14.7242 14.668Z" stroke="#901EFF" strokeWidth="1.5" strokeLinecap="round" strokeLinejoin="round"/>
<path opacity="0.4" d="M15.5398 20.4315C14.4553 20.6136 13.2599 20.4236 12.4207 19.8615C11.3044 19.1173 11.3044 17.8981 12.4207 17.154C13.2678 16.5919 14.479 16.4019 15.5636 16.5919" stroke="#901EFF" strokeWidth="1.5" strokeLinecap="round" strokeLinejoin="round"/>
<path d="M19.5 20.5821C19.4525 20.5742 19.3971 20.5742 19.3496 20.5821C18.2571 20.5425 17.3862 19.6479 17.3862 18.5396C17.3862 17.4075 18.2966 16.4971 19.4287 16.4971C20.5608 16.4971 21.4712 17.4154 21.4712 18.5396C21.4633 19.6479 20.5925 20.5504 19.5 20.5821Z" stroke="#901EFF" strokeWidth="1.5" strokeLinecap="round" strokeLinejoin="round"/>
<path d="M17.1961 23.0757C16.0798 23.8198 16.0798 25.039 17.1961 25.7832C18.4627 26.6302 20.5369 26.6302 21.8036 25.7832C22.9198 25.039 22.9198 23.8198 21.8036 23.0757C20.5448 22.2365 18.4627 22.2365 17.1961 23.0757Z" stroke="#901EFF" strokeWidth="1.5" strokeLinecap="round" strokeLinejoin="round"/>
</svg>
