<svg width="16" height="14" viewBox="0 0 16 14" fill="none" xmlns="http://www.w3.org/2000/svg">
<path opacity="0.4" d="M10.3866 6.99995C10.3866 8.31995 9.31995 9.38661 7.99995 9.38661C6.67995 9.38661 5.61328 8.31995 5.61328 6.99995C5.61328 5.67995 6.67995 4.61328 7.99995 4.61328C9.31995 4.61328 10.3866 5.67995 10.3866 6.99995Z" stroke="#4B6EFF" strokeWidth="1.5" strokeLinecap="round" strokeLinejoin="round"/>
<path d="M7.9999 12.5138C10.3532 12.5138 12.5466 11.1271 14.0732 8.72714C14.6732 7.78714 14.6732 6.20714 14.0732 5.26714C12.5466 2.86714 10.3532 1.48047 7.9999 1.48047C5.64656 1.48047 3.45323 2.86714 1.92656 5.26714C1.32656 6.20714 1.32656 7.78714 1.92656 8.72714C3.45323 11.1271 5.64656 12.5138 7.9999 12.5138Z" stroke="#4B6EFF" strokeWidth="1.5" strokeLinecap="round" strokeLinejoin="round"/>
</svg>
