<svg width="174" height="40" viewBox="0 0 174 40" fill="none" xmlns="http://www.w3.org/2000/svg">
<rect width="174" height="40" rx="8" fill="#F1F1F1" fill-opacity="0.4"/>
<path d="M10.52 25V20.814H15.294V19.848H10.52V16.166H16.078V15.2H9.302V25H10.52ZM18.6615 16.026C18.9835 15.704 18.9835 15.172 18.6615 14.85C18.3395 14.528 17.7795 14.528 17.4435 14.85C17.1215 15.172 17.1215 15.704 17.4435 16.026C17.7795 16.348 18.3395 16.348 18.6615 16.026ZM18.6335 25V17.72H17.4715V25H18.6335ZM21.8738 25V14.192H20.7118V25H21.8738ZM26.85 25.098C27.606 25.098 28.18 25.056 28.586 24.958L28.558 24.048C28.026 24.146 27.536 24.188 27.074 24.188C26.584 24.188 26.276 24.006 26.122 23.712C25.996 23.39 25.968 23.152 25.968 22.76V18.602H28.53V17.72H25.968V15.438H24.918V16.74C24.918 17.398 24.666 17.72 23.994 17.72H23.084V18.602H24.82V22.844C24.82 24.342 25.492 25.098 26.85 25.098ZM36.5919 20.926C36.5919 18.868 35.2759 17.622 33.1619 17.622C31.9719 17.622 31.0479 17.972 30.3759 18.658C29.7039 19.344 29.3679 20.254 29.3679 21.36C29.3679 22.494 29.7179 23.404 30.4179 24.09C31.1319 24.762 32.1259 25.098 33.4139 25.098C34.5759 25.098 35.5979 24.72 36.4659 23.978L35.9199 23.194C35.1919 23.88 34.3519 24.23 33.4139 24.23C31.8039 24.23 30.6699 23.39 30.5719 21.724H36.5359C36.5779 21.472 36.5919 21.206 36.5919 20.926ZM33.1619 18.462C34.5479 18.462 35.4019 19.33 35.4019 20.716C35.4019 20.814 35.4019 20.884 35.3879 20.926H30.5859C30.6839 19.358 31.6639 18.462 33.1619 18.462ZM41.3068 17.636C40.2428 17.636 39.5288 18.434 39.2348 19.568L39.1368 17.72H38.1708V25H39.3328V21.906C39.3328 20.94 39.5008 20.156 39.8228 19.526C40.1448 18.896 40.6348 18.588 41.2928 18.588C41.4748 18.588 41.7128 18.616 41.9928 18.672L42.0208 17.72C41.8108 17.664 41.5728 17.636 41.3068 17.636ZM50.7226 17.622C49.4206 17.622 48.3006 18.196 47.7546 19.204V14.192H46.5926V25H47.6426L47.7406 23.474C48.2866 24.58 49.3926 25.098 50.6666 25.098C51.7446 25.098 52.6266 24.748 53.2846 24.048C53.9566 23.334 54.2926 22.438 54.2926 21.36C54.2926 20.282 53.9706 19.4 53.3126 18.686C52.6686 17.972 51.8006 17.622 50.7226 17.622ZM50.4286 24.16C49.6446 24.16 49.0006 23.908 48.4826 23.39C47.9786 22.872 47.7266 22.186 47.7266 21.36C47.7266 20.534 47.9786 19.862 48.4826 19.344C48.9866 18.826 49.6306 18.56 50.4146 18.56C51.2126 18.56 51.8566 18.812 52.3466 19.33C52.8506 19.834 53.1026 20.506 53.1026 21.36C53.1026 22.2 52.8506 22.872 52.3466 23.39C51.8426 23.908 51.1986 24.16 50.4286 24.16ZM59.5344 21.136L58.5404 23.838H58.5124L57.4624 21.136L56.0764 17.72H54.8444L57.9244 25.084L56.9864 27.38H58.1484L61.9984 17.72H60.8504L59.5344 21.136ZM72.6016 19.106C72.0556 18.154 71.0056 17.622 69.7036 17.622C68.5696 17.622 67.6736 17.972 67.0156 18.672C66.3716 19.372 66.0496 20.268 66.0496 21.36C66.0496 22.452 66.3716 23.348 67.0016 24.048C67.6316 24.748 68.5136 25.098 69.6476 25.098C70.9496 25.098 72.0696 24.58 72.6156 23.46L72.7136 25H73.7636V14.192H72.6016V19.106ZM69.9556 24.146C68.3316 24.146 67.2536 23.054 67.2536 21.36C67.2536 19.666 68.3316 18.574 69.9556 18.574C70.7256 18.574 71.3696 18.84 71.8736 19.372C72.3776 19.89 72.6296 20.562 72.6296 21.36C72.6296 22.186 72.3776 22.858 71.8596 23.376C71.3416 23.894 70.7116 24.146 69.9556 24.146ZM81.9128 19.19C81.3948 18.182 80.3308 17.608 78.9868 17.608C77.8668 17.608 76.9708 17.958 76.3128 18.672C75.6548 19.386 75.3328 20.282 75.3328 21.388C75.3328 22.48 75.6548 23.376 76.2988 24.076C76.9428 24.762 77.8248 25.112 78.9308 25.112C80.2328 25.112 81.3528 24.566 81.8988 23.432L81.9968 25H83.0468V17.72H81.9828L81.9128 19.19ZM79.2388 24.146C78.4408 24.146 77.7828 23.894 77.2788 23.404C76.7888 22.9 76.5368 22.228 76.5368 21.374C76.5368 19.638 77.6148 18.574 79.2388 18.574C80.0088 18.574 80.6388 18.84 81.1428 19.358C81.6608 19.876 81.9128 20.548 81.9128 21.374C81.9128 22.2 81.6468 22.858 81.1288 23.376C80.6108 23.894 79.9808 24.146 79.2388 24.146ZM87.9223 25.098C88.6783 25.098 89.2523 25.056 89.6583 24.958L89.6303 24.048C89.0983 24.146 88.6083 24.188 88.1463 24.188C87.6563 24.188 87.3483 24.006 87.1943 23.712C87.0683 23.39 87.0403 23.152 87.0403 22.76V18.602H89.6023V17.72H87.0403V15.438H85.9903V16.74C85.9903 17.398 85.7383 17.72 85.0663 17.72H84.1563V18.602H85.8923V22.844C85.8923 24.342 86.5643 25.098 87.9223 25.098ZM97.6642 20.926C97.6642 18.868 96.3482 17.622 94.2342 17.622C93.0442 17.622 92.1202 17.972 91.4482 18.658C90.7762 19.344 90.4402 20.254 90.4402 21.36C90.4402 22.494 90.7902 23.404 91.4902 24.09C92.2042 24.762 93.1982 25.098 94.4862 25.098C95.6482 25.098 96.6702 24.72 97.5382 23.978L96.9922 23.194C96.2642 23.88 95.4242 24.23 94.4862 24.23C92.8762 24.23 91.7422 23.39 91.6442 21.724H97.6082C97.6502 21.472 97.6642 21.206 97.6642 20.926ZM94.2342 18.462C95.6202 18.462 96.4742 19.33 96.4742 20.716C96.4742 20.814 96.4742 20.884 96.4602 20.926H91.6582C91.7562 19.358 92.7362 18.462 94.2342 18.462ZM106.002 17.636C104.938 17.636 104.224 18.434 103.93 19.568L103.832 17.72H102.866V25H104.028V21.906C104.028 20.94 104.196 20.156 104.518 19.526C104.84 18.896 105.33 18.588 105.988 18.588C106.17 18.588 106.408 18.616 106.688 18.672L106.716 17.72C106.506 17.664 106.268 17.636 106.002 17.636ZM113.837 19.19C113.319 18.182 112.255 17.608 110.911 17.608C109.791 17.608 108.895 17.958 108.237 18.672C107.579 19.386 107.257 20.282 107.257 21.388C107.257 22.48 107.579 23.376 108.223 24.076C108.867 24.762 109.749 25.112 110.855 25.112C112.157 25.112 113.277 24.566 113.823 23.432L113.921 25H114.971V17.72H113.907L113.837 19.19ZM111.163 24.146C110.365 24.146 109.707 23.894 109.203 23.404C108.713 22.9 108.461 22.228 108.461 21.374C108.461 19.638 109.539 18.574 111.163 18.574C111.933 18.574 112.563 18.84 113.067 19.358C113.585 19.876 113.837 20.548 113.837 21.374C113.837 22.2 113.571 22.858 113.053 23.376C112.535 23.894 111.905 24.146 111.163 24.146ZM120.63 17.622C119.384 17.622 118.474 18.182 118.026 19.022L117.97 17.72H116.948V25H118.11V21.15C118.11 20.548 118.236 20.03 118.53 19.484C118.824 18.924 119.468 18.574 120.35 18.574C121.624 18.574 122.268 19.33 122.268 20.632V25H123.416V20.38C123.416 18.63 122.464 17.622 120.63 17.622ZM131.474 19.078C130.984 18.182 129.85 17.622 128.464 17.622C127.4 17.622 126.532 17.93 125.86 18.546C125.188 19.148 124.852 20.044 124.852 21.22C124.852 22.396 125.188 23.278 125.86 23.88C126.532 24.482 127.4 24.776 128.464 24.776C129.766 24.776 130.928 24.216 131.39 23.194V24.16C131.39 25.014 131.11 25.63 130.536 26.036C129.976 26.442 129.262 26.638 128.394 26.638C127.372 26.638 126.448 26.316 125.594 25.686L125.188 26.526C126.042 27.142 127.33 27.492 128.408 27.492C129.626 27.492 130.62 27.198 131.39 26.624C132.16 26.05 132.552 25.14 132.552 23.894V17.72H131.572L131.474 19.078ZM128.744 23.866C127.022 23.866 126.028 22.83 126.028 21.206C126.028 19.582 127.022 18.532 128.744 18.532C130.41 18.532 131.418 19.582 131.418 21.206C131.418 22.83 130.41 23.866 128.744 23.866ZM141.25 20.926C141.25 18.868 139.934 17.622 137.82 17.622C136.63 17.622 135.706 17.972 135.034 18.658C134.362 19.344 134.026 20.254 134.026 21.36C134.026 22.494 134.376 23.404 135.076 24.09C135.79 24.762 136.784 25.098 138.072 25.098C139.234 25.098 140.256 24.72 141.124 23.978L140.578 23.194C139.85 23.88 139.01 24.23 138.072 24.23C136.462 24.23 135.328 23.39 135.23 21.724H141.194C141.236 21.472 141.25 21.206 141.25 20.926ZM137.82 18.462C139.206 18.462 140.06 19.33 140.06 20.716C140.06 20.814 140.06 20.884 140.046 20.926H135.244C135.342 19.358 136.322 18.462 137.82 18.462Z" fill="#696E7C"/>
<path d="M154 18L158 22L162 18" stroke="#A1A5AD" stroke-width="2" stroke-linecap="round" stroke-linejoin="round"/>
</svg>
