<svg
    width="94"
    height="40"
    viewBox="0 0 94 40"
    fill="none"
    xmlns="http://www.w3.org/2000/svg"
  >
    <rect width="94" height="40" rx="8" fill="#F1F1F1" fill-opacity="0.4" />
    <path
      d="M10.52 25V20.814H15.294V19.848H10.52V16.166H16.078V15.2H9.302V25H10.52ZM18.6615 16.026C18.9835 15.704 18.9835 15.172 18.6615 14.85C18.3395 14.528 17.7795 14.528 17.4435 14.85C17.1215 15.172 17.1215 15.704 17.4435 16.026C17.7795 16.348 18.3395 16.348 18.6615 16.026ZM18.6335 25V17.72H17.4715V25H18.6335ZM21.8738 25V14.192H20.7118V25H21.8738ZM26.85 25.098C27.606 25.098 28.18 25.056 28.586 24.958L28.558 24.048C28.026 24.146 27.536 24.188 27.074 24.188C26.584 24.188 26.276 24.006 26.122 23.712C25.996 23.39 25.968 23.152 25.968 22.76V18.602H28.53V17.72H25.968V15.438H24.918V16.74C24.918 17.398 24.666 17.72 23.994 17.72H23.084V18.602H24.82V22.844C24.82 24.342 25.492 25.098 26.85 25.098ZM36.5919 20.926C36.5919 18.868 35.2759 17.622 33.1619 17.622C31.9719 17.622 31.0479 17.972 30.3759 18.658C29.7039 19.344 29.3679 20.254 29.3679 21.36C29.3679 22.494 29.7179 23.404 30.4179 24.09C31.1319 24.762 32.1259 25.098 33.4139 25.098C34.5759 25.098 35.5979 24.72 36.4659 23.978L35.9199 23.194C35.1919 23.88 34.3519 24.23 33.4139 24.23C31.8039 24.23 30.6699 23.39 30.5719 21.724H36.5359C36.5779 21.472 36.5919 21.206 36.5919 20.926ZM33.1619 18.462C34.5479 18.462 35.4019 19.33 35.4019 20.716C35.4019 20.814 35.4019 20.884 35.3879 20.926H30.5859C30.6839 19.358 31.6639 18.462 33.1619 18.462ZM41.3068 17.636C40.2428 17.636 39.5288 18.434 39.2348 19.568L39.1368 17.72H38.1708V25H39.3328V21.906C39.3328 20.94 39.5008 20.156 39.8228 19.526C40.1448 18.896 40.6348 18.588 41.2928 18.588C41.4748 18.588 41.7128 18.616 41.9928 18.672L42.0208 17.72C41.8108 17.664 41.5728 17.636 41.3068 17.636ZM50.7226 17.622C49.4206 17.622 48.3006 18.196 47.7546 19.204V14.192H46.5926V25H47.6426L47.7406 23.474C48.2866 24.58 49.3926 25.098 50.6666 25.098C51.7446 25.098 52.6266 24.748 53.2846 24.048C53.9566 23.334 54.2926 22.438 54.2926 21.36C54.2926 20.282 53.9706 19.4 53.3126 18.686C52.6686 17.972 51.8006 17.622 50.7226 17.622ZM50.4286 24.16C49.6446 24.16 49.0006 23.908 48.4826 23.39C47.9786 22.872 47.7266 22.186 47.7266 21.36C47.7266 20.534 47.9786 19.862 48.4826 19.344C48.9866 18.826 49.6306 18.56 50.4146 18.56C51.2126 18.56 51.8566 18.812 52.3466 19.33C52.8506 19.834 53.1026 20.506 53.1026 21.36C53.1026 22.2 52.8506 22.872 52.3466 23.39C51.8426 23.908 51.1986 24.16 50.4286 24.16ZM59.5344 21.136L58.5404 23.838H58.5124L57.4624 21.136L56.0764 17.72H54.8444L57.9244 25.084L56.9864 27.38H58.1484L61.9984 17.72H60.8504L59.5344 21.136Z"
      fill="#696E7C"
    />
    <path
      d="M74 18L78 22L82 18"
      stroke="#A1A5AD"
      stroke-width="2"
      stroke-linecap="round"
      stroke-linejoin="round"
    />
  </svg>