<svg width="38" height="38" viewBox="0 0 38 38" fill="none" xmlns="http://www.w3.org/2000/svg">
<rect width="38" height="38" rx="19" fill="#E6F7EE"/>
<path d="M24.7789 15.7694V19.8465C24.7789 22.2849 23.3856 23.3298 21.2956 23.3298H14.3368C13.9806 23.3298 13.6402 23.2982 13.3235 23.227C13.1256 23.1953 12.9356 23.1399 12.7614 23.0766C11.5739 22.6332 10.8535 21.604 10.8535 19.8465V15.7694C10.8535 13.3311 12.2468 12.2861 14.3368 12.2861H21.2956C23.0689 12.2861 24.3435 13.0382 24.6839 14.7561C24.7394 15.0728 24.7789 15.3974 24.7789 15.7694Z" stroke="#00AA55" strokeWidth="1.1875" strokeMiterlimit="10" strokeLinecap="round" strokeLinejoin="round"/>
<path opacity="0.4" d="M27.1541 18.1451V22.2222C27.1541 24.6606 25.7608 25.7056 23.6708 25.7056H16.7121C16.1262 25.7056 15.5958 25.6264 15.1367 25.4523C14.1946 25.1039 13.5533 24.3835 13.3237 23.2277C13.6404 23.2989 13.9808 23.3306 14.3371 23.3306H21.2958C23.3858 23.3306 24.7791 22.2856 24.7791 19.8472V15.7701C24.7791 15.3981 24.7475 15.0656 24.6842 14.7568C26.1883 15.0735 27.1541 16.1343 27.1541 18.1451Z" stroke="#00AA55" strokeWidth="1.1875" strokeMiterlimit="10" strokeLinecap="round" strokeLinejoin="round"/>
<path d="M17.8122 19.9027C18.9665 19.9027 19.9022 18.9669 19.9022 17.8127C19.9022 16.6584 18.9665 15.7227 17.8122 15.7227C16.6579 15.7227 15.7222 16.6584 15.7222 17.8127C15.7222 18.9669 16.6579 19.9027 17.8122 19.9027Z" stroke="#00AA55" strokeWidth="1.1875" strokeMiterlimit="10" strokeLinecap="round" strokeLinejoin="round"/>
<path opacity="0.4" d="M13.2842 16.0703V19.5537" stroke="#00AA55" strokeWidth="1.1875" strokeMiterlimit="10" strokeLinecap="round" strokeLinejoin="round"/>
<path opacity="0.4" d="M22.3408 16.0703V19.5537" stroke="#00AA55" strokeWidth="1.1875" strokeMiterlimit="10" strokeLinecap="round" strokeLinejoin="round"/>
</svg>
